<?xml version="1.0" standalone="no"?>
<!DOCTYPE svg PUBLIC "-//W3C//DTD SVG 20010904//EN"
 "http://www.w3.org/TR/2001/REC-SVG-20010904/DTD/svg10.dtd">
<svg version="1.0" xmlns="http://www.w3.org/2000/svg"
 width="64.000000pt" height="87.000000pt" viewBox="0 0 64.000000 87.000000"
 preserveAspectRatio="xMidYMid meet">

<g transform="translate(0.000000,87.000000) scale(0.100000,-0.100000)"
fill="#000000" stroke="none">
<path d="M140 708 c49 -13 60 -32 60 -104 0 -54 -9 -84 -70 -231 -49 -118 -79
-176 -100 -195 -17 -15 -30 -30 -30 -33 0 -3 34 -5 75 -5 43 0 75 4 75 10 0 6
-8 10 -19 10 -46 0 -50 48 -12 136 17 38 24 44 50 44 30 0 31 -1 31 -48 0 -58
-13 -77 -60 -90 -27 -8 -7 -10 95 -10 117 0 126 1 90 12 l-40 12 -3 62 -3 62
29 0 c28 0 32 -6 62 -79 17 -44 29 -85 25 -90 -3 -6 -19 -11 -36 -11 -16 0
-29 -4 -29 -10 0 -6 42 -10 105 -10 63 0 105 4 105 10 0 6 -6 10 -14 10 -26 0
-51 45 -141 261 l-90 214 -3 -86 c-2 -68 2 -97 18 -138 11 -28 20 -54 20 -56
0 -3 -40 -5 -90 -5 -103 0 -103 -1 -66 81 l25 54 0 -58 1 -58 38 3 37 3 5 160
5 159 40 12 c36 11 27 12 -90 12 -102 0 -122 -2 -95 -10z"/>
</g>
</svg>
